<svg width="1266" height="553" viewBox="0 0 1266 553" fill="none" xmlns="http://www.w3.org/2000/svg">
<path fill-rule="evenodd" clip-rule="evenodd" d="M1186.79 0H1150.81L1307 124.998V96.2031L1186.79 0ZM1307 26.687L1273.65 0H1307V26.687ZM1307 194.513L1063.94 0H1027.96L1307 223.309V194.513ZM1307 292.825L941.099 0H905.121L1307 321.62V292.825ZM1307 391.136L818.254 0H782.275L1307 419.931V391.136ZM1307 489.447L695.411 0H659.43L1307 518.242V489.447ZM1263.57 553L616 34.7586V63.5537L1227.59 553H1263.57ZM1140.72 553L616 133.07V161.864L1104.74 553H1140.72ZM1017.88 553L616 231.38V260.175L981.898 553H1017.88ZM895.032 553L616 329.691V358.487L859.054 553H895.032ZM772.189 553L616 428.002V456.798L736.208 553H772.189ZM649.344 553L616 526.313V553H649.344Z" fill="#F2994A" fill-opacity="0.19"/>
<path fill-rule="evenodd" clip-rule="evenodd" d="M570.787 0H534.809L691 124.998V96.2031L570.787 0ZM691 26.687L657.654 0H691V26.687ZM691 194.513L447.943 0H411.965L691 223.309V194.513ZM691 292.825L325.099 0H289.121L691 321.62V292.825ZM691 391.136L202.254 0H166.275L691 419.931V391.136ZM691 489.447L79.4109 0H43.4304L691 518.242V489.447ZM647.565 553L0 34.7586V63.5537L611.587 553H647.565ZM524.721 553L0 133.07V161.864L488.743 553H524.721ZM401.876 553L0 231.38V260.175L365.898 553H401.876ZM279.032 553L0 329.691V358.487L243.054 553H279.032ZM156.189 553L0 428.002V456.798L120.208 553H156.189ZM33.3443 553L0 526.313V553H33.3443Z" fill="#FDECDD"/>
</svg>
