<svg width="118" height="118" viewBox="0 0 118 118" fill="none" xmlns="http://www.w3.org/2000/svg">
<path d="M57.4255 1.39866C57.647 -0.466221 60.353 -0.466221 60.5745 1.39866L62.4308 17.0433C64.8278 37.2449 80.7552 53.1722 100.956 55.5692L116.601 57.4255C118.466 57.647 118.466 60.353 116.601 60.5745L100.956 62.4308C80.7552 64.8278 64.8278 80.7552 62.4308 100.956L60.5745 116.601C60.353 118.466 57.647 118.466 57.4255 116.601L55.5692 100.956C53.1722 80.7552 37.2449 64.8278 17.0433 62.4308L1.39866 60.5745C-0.466221 60.353 -0.466221 57.647 1.39866 57.4255L17.0433 55.5692C37.2449 53.1722 53.1722 37.2449 55.5692 17.0433L57.4255 1.39866Z" fill="#2F6AD8"/>
</svg>
