<svg width="126" height="77" viewBox="0 0 126 77" fill="none" xmlns="http://www.w3.org/2000/svg">
<path d="M2.3049 20.147C2.3049 18.7753 1.27293 17.6631 0 17.6631V0C10.325 0 18.6951 9.02012 18.6951 20.147V56.853C18.6951 58.2247 19.7271 59.3369 21 59.3369C22.273 59.3369 23.3049 58.2247 23.3049 56.853V20.147C23.3049 9.02012 31.675 0 42.0002 0C52.3251 0 60.6951 9.02012 60.6951 20.147V56.853C60.6951 58.2247 61.7272 59.3369 63 59.3369C64.2728 59.3369 65.3049 58.2247 65.3049 56.853V20.147C65.3049 9.02012 73.6749 0 83.9998 0C94.3252 0 102.695 9.02012 102.695 20.147V56.853C102.695 58.2247 103.727 59.3369 105 59.3369C106.273 59.3369 107.305 58.2247 107.305 56.853V20.147C107.305 9.02012 115.675 0 126 0V17.6631C124.727 17.6631 123.695 18.7753 123.695 20.147V56.853C123.695 67.9798 115.325 77 105 77C94.6748 77 86.3048 67.9798 86.3048 56.853V20.147C86.3048 18.7753 85.2731 17.6631 83.9998 17.6631C82.7271 17.6631 81.6949 18.7753 81.6949 20.147V56.853C81.6949 67.9798 73.3249 77 63 77C52.6751 77 44.3051 67.9798 44.3051 56.853V20.147C44.3051 18.7753 43.2729 17.6631 42.0002 17.6631C40.7269 17.6631 39.6952 18.7753 39.6952 20.147V56.853C39.6952 67.9798 31.325 77 21 77C10.6749 77 2.3049 67.9798 2.3049 56.853V20.147Z" fill="#2F6AD8"/>
</svg>
